<?xml version="1.0" standalone="no"?>
<!DOCTYPE svg PUBLIC "-//W3C//DTD SVG 20010904//EN"
 "http://www.w3.org/TR/2001/REC-SVG-20010904/DTD/svg10.dtd">
<svg version="1.0" xmlns="http://www.w3.org/2000/svg"
 width="1421.000000pt" height="1113.000000pt" viewBox="0 0 1421.000000 1113.000000"
 preserveAspectRatio="xMidYMid meet">

<g transform="translate(0.000000,1113.000000) scale(0.100000,-0.100000)"
fill="#000000" stroke="none">
<path d="M3505 9384 c-45 -25 -65 -45 -86 -86 -18 -35 -19 -66 -19 -510 l0
-473 -208 -59 c-241 -68 -389 -121 -487 -175 -85 -46 -121 -96 -138 -195 -11
-66 -11 -67 16 -92 l27 -25 0 -2641 c0 -1993 -3 -2656 -12 -2699 -15 -75 2
-156 43 -195 37 -36 127 -45 189 -20 134 54 503 144 735 180 431 68 926 73
1385 15 598 -75 1178 -247 1668 -493 125 -63 319 -177 369 -216 22 -17 41 -20
130 -20 95 0 110 3 157 28 28 15 53 30 54 35 7 14 190 117 353 197 510 250
1101 415 1749 487 221 24 794 25 1008 0 319 -36 622 -100 895 -186 191 -61
275 -53 334 31 l22 32 1 2801 0 2802 -20 67 c-15 48 -32 78 -59 105 -48 48
-57 51 -638 202 l-123 32 0 462 c0 318 -4 473 -11 496 -14 40 -62 94 -104 116
-25 14 -60 15 -230 10 -855 -26 -1692 -321 -2380 -841 -325 -244 -771 -690
-980 -979 l-20 -28 -111 138 c-789 979 -1792 1554 -2944 1688 -74 9 -225 18
-335 21 -174 4 -204 3 -230 -12z m6973 -5316 c-7 -4 -33 -8 -58 -8 -71 0 -292
-28 -450 -56 -580 -104 -1134 -329 -1637 -665 -286 -192 -587 -452 -875 -758
-66 -69 -124 -127 -129 -129 -5 -2 -9 897 -9 2346 l0 2350 37 53 c183 268 502
621 767 848 618 529 1344 848 2131 935 77 9 160 17 185 18 l45 3 3 -2464 c2
-1965 0 -2466 -10 -2473z m-6478 4916 c728 -84 1403 -374 2020 -869 242 -194
597 -561 818 -847 l82 -106 -2 -2381 -3 -2380 -100 115 c-205 237 -531 535
-788 719 -320 229 -734 440 -1107 565 -326 108 -685 182 -1024 211 l-146 13 0
2488 0 2488 58 0 c31 0 118 -7 192 -16z m-598 -3148 l3 -2094 31 -39 c58 -71
72 -75 297 -84 764 -30 1443 -262 2088 -715 137 -96 366 -284 449 -368 l65
-66 -85 31 c-457 170 -1040 293 -1565 330 -211 15 -677 6 -865 -15 -265 -31
-582 -93 -792 -155 l-68 -20 0 2569 0 2568 103 36 c56 20 152 54 212 76 61 21
113 39 117 39 5 1 9 -941 10 -2093z m7663 2013 c88 -26 183 -57 210 -68 l50
-19 3 -2561 c2 -2046 0 -2561 -10 -2561 -7 0 -35 7 -62 15 -151 46 -512 112
-776 141 -188 21 -694 30 -905 15 -616 -43 -1204 -178 -1783 -410 -50 -20 -52
-20 -43 -2 13 24 302 299 401 381 475 396 1014 676 1569 815 284 71 509 103
811 114 220 8 254 17 292 80 l23 36 3 2043 2 2042 28 -6 c15 -4 99 -28 187
-55z"/>
<path d="M9440 7894 c-442 -119 -735 -247 -1065 -465 -241 -160 -535 -401
-570 -470 -31 -58 -4 -175 45 -200 114 -57 185 -61 250 -13 21 16 98 74 172
130 419 318 808 527 1198 645 52 16 106 29 119 29 76 0 141 182 96 270 -40 77
-132 105 -245 74z"/>
<path d="M9358 6990 c-512 -136 -996 -401 -1428 -782 -111 -98 -140 -142 -139
-213 0 -61 11 -82 69 -132 72 -62 92 -73 137 -73 41 0 48 5 136 93 223 223
608 472 972 627 113 48 361 132 448 151 70 15 109 53 132 131 32 107 9 173
-75 216 -58 29 -78 28 -252 -18z"/>
<path d="M9385 6074 c-538 -143 -971 -378 -1441 -781 -76 -65 -137 -126 -144
-143 -7 -18 -11 -55 -8 -92 4 -61 5 -62 67 -120 74 -69 101 -82 159 -73 35 5
48 14 73 48 57 79 330 294 549 432 130 81 399 217 543 273 97 38 322 109 401
127 99 22 152 220 80 297 -68 71 -113 76 -279 32z"/>
<path d="M9455 5164 c-27 -8 -102 -29 -165 -46 -303 -82 -648 -242 -937 -434
-183 -122 -507 -384 -545 -443 -24 -35 -23 -112 1 -160 25 -49 121 -137 158
-144 53 -10 81 3 135 65 57 66 242 218 388 319 301 209 649 375 983 469 77 22
149 48 160 58 33 30 59 94 65 158 11 144 -81 204 -243 158z"/>
<path d="M4670 7903 c-26 -10 -62 -42 -91 -80 -49 -65 -32 -159 41 -230 36
-35 39 -37 205 -88 422 -131 855 -371 1225 -681 63 -53 125 -100 138 -105 31
-12 132 -11 168 1 16 6 38 24 49 42 89 140 78 181 -96 334 -226 198 -550 420
-784 537 -195 97 -435 186 -652 243 -129 33 -172 39 -203 27z"/>
<path d="M4660 6968 c-61 -31 -110 -98 -110 -149 0 -91 70 -180 159 -205 510
-140 979 -392 1371 -738 91 -80 104 -86 198 -86 81 0 84 1 113 33 58 63 81
138 63 205 -12 42 -347 318 -559 459 -342 227 -669 373 -1062 472 -67 17 -123
31 -125 31 -2 0 -24 -10 -48 -22z"/>
<path d="M4654 6041 c-44 -27 -103 -99 -116 -142 -9 -32 -8 -44 12 -84 31 -64
95 -109 194 -135 467 -127 918 -372 1319 -717 100 -87 132 -103 202 -103 94 0
113 9 150 68 58 94 59 168 2 220 -505 461 -990 736 -1548 877 -158 40 -173 41
-215 16z"/>
<path d="M4641 5123 c-63 -31 -119 -147 -101 -212 17 -66 100 -128 205 -156
247 -64 566 -201 810 -348 178 -106 322 -213 578 -426 35 -29 59 -41 95 -45
72 -10 142 7 170 41 55 66 76 151 51 207 -15 32 -279 258 -437 373 -361 263
-739 439 -1186 553 -138 35 -140 35 -185 13z"/>
</g>
</svg>
